<svg xmlns="http://www.w3.org/2000/svg" xmlns:xlink="http://www.w3.org/1999/xlink" width="1000" zoomAndPan="magnify" viewBox="0 0 750 749.999995" height="1000" preserveAspectRatio="xMidYMid meet" version="1.0"><defs><clipPath id="81fde77f52"><path d="M 93.75 93.75 L 655.878906 93.75 L 655.878906 655.878906 L 93.75 655.878906 Z M 93.75 93.75 " clip-rule="nonzero"/></clipPath><clipPath id="a432f31cc5"><path d="M 441.503906 253 L 508 253 L 508 314 L 441.503906 314 Z M 441.503906 253 " clip-rule="nonzero"/></clipPath><clipPath id="23cbbb14e6"><path d="M 445 326 L 569.832031 326 L 569.832031 470 L 445 470 Z M 445 326 " clip-rule="nonzero"/></clipPath><clipPath id="6918c7f5a9"><path d="M 441.503906 357 L 504 357 L 504 472.078125 L 441.503906 472.078125 Z M 441.503906 357 " clip-rule="nonzero"/></clipPath><clipPath id="3574a4d31b"><path d="M 266.039062 333.105469 L 487.269531 333.105469 L 487.269531 554.335938 L 266.039062 554.335938 Z M 266.039062 333.105469 " clip-rule="nonzero"/></clipPath><clipPath id="219af14887"><path d="M 312 195.738281 L 431 195.738281 L 431 314 L 312 314 Z M 312 195.738281 " clip-rule="nonzero"/></clipPath><clipPath id="d062b27fd8"><path d="M 312 195.738281 L 313.21875 195.738281 L 313.21875 314 L 312 314 Z M 312 195.738281 " clip-rule="nonzero"/></clipPath><clipPath id="1e1e374ede"><path d="M 172.292969 329 L 310 329 L 310 461.84375 L 172.292969 461.84375 Z M 172.292969 329 " clip-rule="nonzero"/></clipPath><clipPath id="8170555bf6"><path d="M 236 357 L 313.21875 357 L 313.21875 461.84375 L 236 461.84375 Z M 236 357 " clip-rule="nonzero"/></clipPath></defs><g clip-path="url(#81fde77f52)"><path fill="#e8af30" d="M 374.8125 93.75 C 219.527344 93.75 93.75 219.527344 93.75 374.8125 C 93.75 530.101562 219.527344 655.878906 374.8125 655.878906 C 530.101562 655.878906 655.878906 530.101562 655.878906 374.8125 C 655.878906 219.527344 530.101562 93.75 374.8125 93.75 Z M 374.8125 599.664062 C 250.582031 599.664062 149.960938 499.042969 149.960938 374.8125 C 149.960938 250.582031 250.582031 149.960938 374.8125 149.960938 C 499.042969 149.960938 599.664062 250.582031 599.664062 374.8125 C 599.664062 499.042969 499.042969 599.664062 374.8125 599.664062 Z M 374.8125 599.664062 " fill-opacity="1" fill-rule="nonzero"/></g><g clip-path="url(#a432f31cc5)"><path fill="#e8af30" d="M 492.535156 313.925781 L 507.132812 313.925781 C 491.605469 288.148438 469.238281 267.023438 442.214844 253.359375 C 442.214844 253.980469 442.214844 254.289062 442.214844 254.910156 C 442.214844 258.949219 441.90625 262.988281 441.285156 266.714844 C 462.09375 278.207031 479.800781 294.359375 492.535156 313.925781 Z M 492.535156 313.925781 " fill-opacity="1" fill-rule="nonzero"/></g><g clip-path="url(#23cbbb14e6)"><path fill="#e8af30" d="M 551.242188 338.777344 L 538.507812 338.777344 C 536.953125 331.632812 530.742188 326.351562 523.285156 326.351562 L 492.226562 326.351562 C 484.769531 326.351562 478.558594 331.632812 477.003906 338.777344 L 464.269531 338.777344 C 454.019531 338.777344 445.632812 347.164062 445.632812 357.414062 L 445.632812 450.597656 C 445.632812 460.847656 454.019531 469.234375 464.269531 469.234375 L 551.242188 469.234375 C 561.492188 469.234375 569.878906 460.847656 569.878906 450.597656 L 569.878906 357.414062 C 569.878906 347.164062 561.492188 338.777344 551.242188 338.777344 Z M 489.117188 341.882812 C 489.117188 340.019531 490.359375 338.777344 492.226562 338.777344 L 523.285156 338.777344 C 525.148438 338.777344 526.390625 340.019531 526.390625 341.882812 L 526.390625 348.09375 C 526.390625 349.957031 525.148438 351.199219 523.285156 351.199219 L 492.226562 351.199219 C 490.359375 351.199219 489.117188 349.957031 489.117188 348.09375 Z M 557.453125 450.597656 C 557.453125 454.011719 554.65625 456.808594 551.242188 456.808594 L 464.269531 456.808594 C 460.851562 456.808594 458.058594 454.011719 458.058594 450.597656 L 458.058594 357.414062 C 458.058594 353.996094 460.851562 351.199219 464.269531 351.199219 L 477.003906 351.199219 C 478.558594 358.34375 484.769531 363.625 492.226562 363.625 L 523.285156 363.625 C 530.742188 363.625 536.953125 358.34375 538.507812 351.199219 L 551.242188 351.199219 C 554.65625 351.199219 557.453125 353.996094 557.453125 357.414062 Z M 557.453125 450.597656 " fill-opacity="1" fill-rule="nonzero"/></g><path fill="#e8af30" d="M 532.605469 376.050781 L 482.90625 376.050781 C 479.488281 376.050781 476.695312 378.84375 476.695312 382.261719 C 476.695312 385.679688 479.488281 388.472656 482.90625 388.472656 L 532.605469 388.472656 C 536.019531 388.472656 538.816406 385.679688 538.816406 382.261719 C 538.816406 378.84375 536.019531 376.050781 532.605469 376.050781 Z M 532.605469 376.050781 " fill-opacity="1" fill-rule="nonzero"/><path fill="#e8af30" d="M 532.605469 400.898438 L 482.90625 400.898438 C 479.488281 400.898438 476.695312 403.695312 476.695312 407.109375 C 476.695312 410.527344 479.488281 413.324219 482.90625 413.324219 L 532.605469 413.324219 C 536.019531 413.324219 538.816406 410.527344 538.816406 407.109375 C 538.816406 403.695312 536.019531 400.898438 532.605469 400.898438 Z M 532.605469 400.898438 " fill-opacity="1" fill-rule="nonzero"/><path fill="#e8af30" d="M 532.605469 425.746094 L 482.90625 425.746094 C 479.488281 425.746094 476.695312 428.542969 476.695312 431.960938 C 476.695312 435.375 479.488281 438.171875 482.90625 438.171875 L 532.605469 438.171875 C 536.019531 438.171875 538.816406 435.375 538.816406 431.960938 C 538.816406 428.542969 536.019531 425.746094 532.605469 425.746094 Z M 532.605469 425.746094 " fill-opacity="1" fill-rule="nonzero"/><g clip-path="url(#6918c7f5a9)"><path fill="#e8af30" d="M 503.40625 481.65625 L 488.496094 481.65625 C 478.558594 495.324219 466.132812 506.816406 451.84375 516.445312 C 443.148438 512.71875 434.140625 508.679688 427.308594 505.886719 C 423.269531 504.023438 420.164062 502.78125 417.988281 501.847656 L 412.707031 484.765625 C 425.441406 468.613281 433.207031 445.9375 433.207031 425.125 C 433.207031 387.851562 406.804688 357.414062 374.191406 357.414062 C 341.578125 357.414062 315.175781 387.851562 315.175781 425.125 C 315.175781 445.9375 322.941406 468.613281 335.675781 484.765625 L 330.394531 501.539062 C 328.53125 502.46875 325.117188 503.710938 321.078125 505.574219 C 313.3125 508.992188 302.75 513.652344 292.8125 517.6875 C 276.347656 507.128906 262.0625 493.773438 251.191406 477.621094 C 249.328125 477.929688 247.460938 478.242188 245.289062 478.242188 L 236.589844 478.242188 C 247.773438 495.945312 262.0625 511.167969 279.144531 523.28125 C 271.691406 526.386719 266.097656 528.871094 265.167969 529.183594 C 263.304688 529.804688 261.75 531.355469 261.441406 533.21875 L 246.839844 585.09375 C 246.21875 586.957031 246.839844 589.128906 247.773438 590.683594 C 248.703125 592.234375 250.878906 593.167969 252.742188 593.167969 L 495.019531 593.167969 C 496.882812 593.167969 498.746094 592.234375 499.992188 590.683594 C 501.234375 589.128906 501.542969 587.265625 500.921875 585.09375 L 486.324219 533.21875 C 485.703125 531.355469 484.460938 529.804688 482.597656 529.183594 C 481.664062 528.871094 474.210938 525.765625 464.890625 521.417969 C 480.109375 510.855469 493.15625 497.1875 503.40625 481.65625 Z M 327.601562 425.125 C 327.601562 394.6875 348.410156 369.835938 374.191406 369.835938 C 399.972656 369.835938 420.785156 394.6875 420.785156 425.125 C 420.785156 455.566406 399.972656 494.082031 374.191406 494.082031 C 348.410156 494.082031 327.601562 455.878906 327.601562 425.125 Z M 475.453125 540.054688 L 486.945312 581.054688 L 261.128906 581.054688 L 272.621094 540.054688 C 278.214844 537.566406 291.878906 531.976562 325.738281 517.066406 C 338.160156 511.789062 338.160156 511.476562 339.09375 511.167969 C 340.023438 510.234375 340.957031 509.300781 341.265625 508.058594 L 345.304688 495.015625 C 353.691406 502.160156 363.632812 506.507812 373.882812 506.507812 C 384.132812 506.507812 394.070312 502.160156 402.457031 495.015625 L 406.496094 508.058594 C 406.804688 509.300781 407.738281 510.546875 408.671875 511.167969 C 409.292969 511.789062 409.601562 511.789062 421.714844 517.066406 C 456.195312 531.667969 469.859375 537.566406 475.453125 540.054688 Z M 475.453125 540.054688 " fill-opacity="1" fill-rule="nonzero"/></g><g clip-path="url(#3574a4d31b)"><path fill="#0f2043" d="M 483.683594 554.320312 L 269.640625 554.320312 C 267.703125 554.320312 266.132812 552.746094 266.132812 550.808594 L 266.132812 530.816406 C 266.132812 497.546875 293.195312 470.484375 326.460938 470.484375 L 426.859375 470.484375 C 460.128906 470.484375 487.191406 497.546875 487.191406 530.816406 L 487.191406 550.808594 C 487.191406 552.746094 485.621094 554.320312 483.683594 554.320312 Z M 376.664062 461.050781 C 341.386719 461.050781 312.691406 432.351562 312.691406 397.078125 C 312.691406 361.804688 341.386719 333.105469 376.664062 333.105469 C 411.9375 333.105469 440.636719 361.804688 440.636719 397.078125 C 440.636719 432.351562 411.9375 461.050781 376.664062 461.050781 Z M 376.664062 461.050781 " fill-opacity="1" fill-rule="nonzero"/></g><g clip-path="url(#219af14887)"><path fill="#e8af30" d="M 329.464844 296.53125 C 329.464844 296.53125 329.773438 296.84375 329.773438 296.84375 C 340.335938 307.40625 354.933594 313.925781 371.085938 313.925781 C 387.238281 313.925781 401.835938 307.40625 412.398438 296.84375 C 412.398438 296.84375 412.707031 296.53125 412.707031 296.53125 C 412.707031 296.53125 413.019531 296.222656 413.019531 296.222656 C 423.578125 285.660156 430.101562 271.0625 430.101562 254.910156 C 430.101562 238.757812 423.578125 224.160156 413.019531 213.601562 C 413.019531 213.601562 412.707031 213.289062 412.707031 213.289062 C 412.707031 213.289062 412.398438 212.976562 412.398438 212.976562 C 401.835938 202.417969 387.238281 195.894531 371.085938 195.894531 C 354.933594 195.894531 340.335938 202.417969 329.773438 212.976562 C 329.773438 212.976562 329.464844 213.289062 329.464844 213.289062 C 329.464844 213.289062 329.152344 213.601562 329.152344 213.601562 C 318.59375 224.160156 312.070312 238.757812 312.070312 254.910156 C 312.070312 271.0625 318.59375 285.660156 329.152344 296.222656 C 329.152344 296.222656 329.152344 296.53125 329.464844 296.53125 Z M 330.707031 248.699219 L 324.804688 248.699219 C 326.046875 240.621094 329.152344 232.859375 333.8125 226.644531 L 337.851562 230.683594 C 339.09375 231.925781 340.644531 232.546875 342.199219 232.546875 C 343.753906 232.546875 345.304688 231.925781 346.546875 230.683594 C 349.03125 228.199219 349.03125 224.472656 346.546875 221.984375 L 342.511719 217.949219 C 348.722656 213.289062 356.175781 209.871094 364.5625 208.941406 L 364.5625 214.53125 C 364.5625 217.949219 367.359375 220.742188 370.777344 220.742188 C 374.191406 220.742188 376.988281 217.949219 376.988281 214.53125 L 376.988281 208.628906 C 385.0625 209.871094 392.828125 212.976562 399.042969 217.636719 L 395.003906 221.675781 C 392.519531 224.160156 392.519531 227.886719 395.003906 230.371094 C 396.246094 231.613281 397.800781 232.238281 399.351562 232.238281 C 400.90625 232.238281 402.457031 231.613281 403.699219 230.371094 L 407.738281 226.335938 C 412.398438 232.546875 415.8125 240 416.746094 248.386719 L 411.464844 248.386719 C 408.050781 248.386719 405.253906 251.183594 405.253906 254.601562 C 405.253906 258.015625 408.050781 260.8125 411.464844 260.8125 L 417.367188 260.8125 C 416.125 268.886719 413.019531 276.652344 408.359375 282.867188 L 404.320312 278.828125 C 401.835938 276.34375 398.109375 276.34375 395.625 278.828125 C 393.140625 281.3125 393.140625 285.039062 395.625 287.523438 L 399.664062 291.5625 C 393.449219 296.222656 385.996094 299.640625 377.609375 300.570312 L 377.609375 295.289062 C 377.609375 291.875 374.8125 289.078125 371.398438 289.078125 C 367.980469 289.078125 365.183594 291.875 365.183594 295.289062 L 365.183594 301.191406 C 357.109375 299.949219 349.34375 296.84375 343.132812 292.183594 L 347.167969 288.148438 C 349.652344 285.660156 349.652344 281.933594 347.167969 279.449219 C 344.683594 276.964844 340.957031 276.964844 338.472656 279.449219 L 334.433594 283.488281 C 329.773438 277.273438 326.359375 269.820312 325.425781 261.433594 L 330.707031 261.433594 C 334.125 261.433594 336.917969 258.636719 336.917969 255.222656 C 336.917969 251.804688 334.125 248.699219 330.707031 248.699219 Z M 330.707031 248.699219 " fill-opacity="1" fill-rule="nonzero"/></g><path fill="#e8af30" d="M 355.554688 261.125 L 371.085938 261.125 C 374.503906 261.125 377.296875 258.328125 377.296875 254.910156 L 377.296875 236.273438 C 377.296875 232.859375 374.503906 230.0625 371.085938 230.0625 C 367.667969 230.0625 364.875 232.859375 364.875 236.273438 L 364.875 248.699219 L 355.554688 248.699219 C 352.140625 248.699219 349.34375 251.496094 349.34375 254.910156 C 349.34375 258.328125 352.140625 261.125 355.554688 261.125 Z M 355.554688 261.125 " fill-opacity="1" fill-rule="nonzero"/><path fill="#e8af30" d="M 492.535156 313.925781 L 507.132812 313.925781 C 491.605469 288.148438 469.238281 267.023438 442.214844 253.359375 C 442.214844 253.980469 442.214844 254.289062 442.214844 254.910156 C 442.214844 258.949219 441.90625 262.988281 441.285156 266.714844 C 462.09375 278.207031 479.800781 294.359375 492.535156 313.925781 Z M 492.535156 313.925781 " fill-opacity="1" fill-rule="nonzero"/><path fill="#e8af30" d="M 245.289062 317.035156 C 245.910156 317.035156 246.53125 317.035156 247.152344 317.035156 C 260.199219 296.222656 278.523438 278.828125 300.265625 266.714844 C 299.957031 262.988281 299.644531 258.949219 299.644531 254.910156 C 299.644531 254.289062 299.644531 253.980469 299.644531 253.359375 C 271.691406 267.644531 248.394531 290.011719 232.863281 317.34375 C 233.796875 317.34375 234.726562 317.035156 235.660156 317.035156 Z M 245.289062 317.035156 " fill-opacity="1" fill-rule="nonzero"/><g clip-path="url(#d062b27fd8)"><path fill="#e8af30" d="M 329.464844 296.53125 C 329.464844 296.53125 329.773438 296.84375 329.773438 296.84375 C 340.335938 307.40625 354.933594 313.925781 371.085938 313.925781 C 387.238281 313.925781 401.835938 307.40625 412.398438 296.84375 C 412.398438 296.84375 412.707031 296.53125 412.707031 296.53125 C 412.707031 296.53125 413.019531 296.222656 413.019531 296.222656 C 423.578125 285.660156 430.101562 271.0625 430.101562 254.910156 C 430.101562 238.757812 423.578125 224.160156 413.019531 213.601562 C 413.019531 213.601562 412.707031 213.289062 412.707031 213.289062 C 412.707031 213.289062 412.398438 212.976562 412.398438 212.976562 C 401.835938 202.417969 387.238281 195.894531 371.085938 195.894531 C 354.933594 195.894531 340.335938 202.417969 329.773438 212.976562 C 329.773438 212.976562 329.464844 213.289062 329.464844 213.289062 C 329.464844 213.289062 329.152344 213.601562 329.152344 213.601562 C 318.59375 224.160156 312.070312 238.757812 312.070312 254.910156 C 312.070312 271.0625 318.59375 285.660156 329.152344 296.222656 C 329.152344 296.222656 329.152344 296.53125 329.464844 296.53125 Z M 330.707031 248.699219 L 324.804688 248.699219 C 326.046875 240.621094 329.152344 232.859375 333.8125 226.644531 L 337.851562 230.683594 C 339.09375 231.925781 340.644531 232.546875 342.199219 232.546875 C 343.753906 232.546875 345.304688 231.925781 346.546875 230.683594 C 349.03125 228.199219 349.03125 224.472656 346.546875 221.984375 L 342.511719 217.949219 C 348.722656 213.289062 356.175781 209.871094 364.5625 208.941406 L 364.5625 214.53125 C 364.5625 217.949219 367.359375 220.742188 370.777344 220.742188 C 374.191406 220.742188 376.988281 217.949219 376.988281 214.53125 L 376.988281 208.628906 C 385.0625 209.871094 392.828125 212.976562 399.042969 217.636719 L 395.003906 221.675781 C 392.519531 224.160156 392.519531 227.886719 395.003906 230.371094 C 396.246094 231.613281 397.800781 232.238281 399.351562 232.238281 C 400.90625 232.238281 402.457031 231.613281 403.699219 230.371094 L 407.738281 226.335938 C 412.398438 232.546875 415.8125 240 416.746094 248.386719 L 411.464844 248.386719 C 408.050781 248.386719 405.253906 251.183594 405.253906 254.601562 C 405.253906 258.015625 408.050781 260.8125 411.464844 260.8125 L 417.367188 260.8125 C 416.125 268.886719 413.019531 276.652344 408.359375 282.867188 L 404.320312 278.828125 C 401.835938 276.34375 398.109375 276.34375 395.625 278.828125 C 393.140625 281.3125 393.140625 285.039062 395.625 287.523438 L 399.664062 291.5625 C 393.449219 296.222656 385.996094 299.640625 377.609375 300.570312 L 377.609375 295.289062 C 377.609375 291.875 374.8125 289.078125 371.398438 289.078125 C 367.980469 289.078125 365.183594 291.875 365.183594 295.289062 L 365.183594 301.191406 C 357.109375 299.949219 349.34375 296.84375 343.132812 292.183594 L 347.167969 288.148438 C 349.652344 285.660156 349.652344 281.933594 347.167969 279.449219 C 344.683594 276.964844 340.957031 276.964844 338.472656 279.449219 L 334.433594 283.488281 C 329.773438 277.273438 326.359375 269.820312 325.425781 261.433594 L 330.707031 261.433594 C 334.125 261.433594 336.917969 258.636719 336.917969 255.222656 C 336.917969 251.804688 334.125 248.699219 330.707031 248.699219 Z M 330.707031 248.699219 " fill-opacity="1" fill-rule="nonzero"/></g><g clip-path="url(#1e1e374ede)"><path fill="#e8af30" d="M 180.992188 416.117188 C 182.234375 419.847656 183.785156 423.574219 185.652344 427.300781 C 183.785156 432.582031 184.71875 438.792969 189.066406 442.832031 L 195.902344 449.664062 C 198.695312 452.460938 202.421875 454.011719 206.460938 454.011719 C 208.324219 454.011719 209.878906 453.703125 211.742188 453.082031 C 215.160156 454.945312 218.886719 456.5 222.925781 457.742188 C 225.410156 462.710938 230.378906 466.4375 236.28125 466.4375 L 245.910156 466.4375 C 251.8125 466.4375 257.089844 463.019531 259.265625 457.742188 C 262.992188 456.5 266.71875 454.945312 270.449219 453.082031 C 272 453.703125 273.863281 454.011719 275.726562 454.011719 C 279.765625 454.011719 283.492188 452.460938 286.289062 449.664062 L 293.121094 442.832031 C 297.472656 438.484375 298.402344 432.582031 296.539062 427.300781 C 298.402344 423.882812 299.957031 420.15625 301.199219 416.117188 C 306.167969 413.632812 309.894531 408.664062 309.894531 402.761719 L 309.894531 393.132812 C 309.894531 387.230469 306.480469 381.953125 301.199219 379.777344 C 299.957031 376.050781 298.402344 372.324219 296.539062 368.59375 C 297.160156 367.042969 297.472656 365.179688 297.472656 363.316406 C 297.472656 359.277344 295.917969 355.550781 293.121094 352.753906 L 286.289062 345.921875 C 283.492188 343.125 279.765625 341.570312 275.726562 341.570312 C 273.863281 341.570312 272.3125 341.882812 270.449219 342.503906 C 267.03125 340.640625 263.304688 339.085938 259.265625 337.84375 C 256.78125 332.875 251.8125 329.148438 245.910156 329.148438 L 236.28125 329.148438 C 230.378906 329.148438 225.097656 332.5625 222.925781 337.84375 C 219.195312 339.085938 215.46875 340.640625 211.742188 342.503906 C 209.566406 342.191406 208.015625 341.882812 206.152344 341.882812 C 202.113281 341.882812 198.386719 343.4375 195.589844 346.230469 L 188.757812 353.066406 C 186.273438 355.550781 184.71875 359.277344 184.71875 363.316406 C 184.71875 365.179688 185.03125 366.730469 185.652344 368.59375 C 183.785156 372.011719 182.234375 375.738281 180.992188 379.777344 C 175.710938 381.953125 172.292969 386.921875 172.292969 393.132812 L 172.292969 402.761719 C 172.292969 408.664062 175.710938 413.632812 180.992188 416.117188 Z M 184.71875 393.132812 C 184.71875 391.890625 185.652344 390.648438 187.203125 390.648438 L 191.242188 390.648438 C 192.484375 382.261719 195.902344 374.496094 200.558594 367.972656 L 197.765625 365.179688 C 196.832031 364.246094 196.832031 362.695312 197.765625 361.761719 L 204.597656 354.929688 C 204.910156 354.617188 205.53125 354.308594 206.152344 354.308594 C 206.773438 354.308594 207.394531 354.617188 207.703125 354.929688 L 210.5 357.722656 C 217.023438 352.753906 224.789062 349.648438 233.175781 348.40625 L 233.175781 344.367188 C 233.175781 343.125 234.105469 341.882812 235.660156 341.882812 L 245.289062 341.882812 C 246.53125 341.882812 247.773438 342.8125 247.773438 344.367188 L 247.773438 348.40625 C 256.160156 349.648438 263.925781 353.066406 270.449219 357.722656 L 273.242188 354.929688 C 273.554688 354.617188 274.175781 354.308594 274.796875 354.308594 C 275.417969 354.308594 276.039062 354.617188 276.347656 354.929688 L 283.183594 361.761719 C 284.113281 362.695312 284.113281 364.246094 283.183594 365.179688 L 280.386719 367.972656 C 285.355469 374.496094 288.464844 382.261719 289.707031 390.648438 L 293.742188 390.648438 C 294.984375 390.648438 296.230469 391.582031 296.230469 393.132812 L 296.230469 402.761719 C 296.230469 404.003906 295.296875 405.246094 293.742188 405.246094 L 289.707031 405.246094 C 288.464844 413.632812 285.046875 421.398438 280.386719 427.921875 L 283.183594 430.71875 C 284.113281 431.648438 284.113281 433.203125 283.183594 434.132812 L 276.347656 440.96875 C 276.347656 441.277344 275.726562 441.277344 275.105469 441.277344 C 274.484375 441.277344 273.863281 440.96875 273.554688 440.65625 L 270.757812 437.863281 C 264.234375 442.832031 256.46875 445.9375 248.082031 447.179688 L 248.082031 451.21875 C 248.082031 452.460938 247.152344 453.703125 245.597656 453.703125 L 235.96875 453.703125 C 234.726562 453.703125 233.484375 452.769531 233.484375 451.21875 L 233.484375 447.179688 C 225.097656 445.9375 217.332031 442.519531 210.808594 437.863281 L 208.015625 440.65625 C 207.394531 441.277344 206.773438 441.277344 206.152344 441.277344 C 205.53125 441.277344 204.910156 440.96875 204.597656 440.65625 L 197.765625 433.824219 C 196.832031 432.890625 196.832031 431.339844 197.765625 430.40625 L 200.558594 427.613281 C 195.589844 421.089844 192.484375 413.324219 191.242188 404.9375 L 187.203125 404.9375 C 185.652344 404.9375 184.71875 404.003906 184.71875 402.453125 Z M 184.71875 393.132812 " fill-opacity="1" fill-rule="nonzero"/></g><path fill="#e8af30" d="M 240.628906 435.066406 C 261.128906 435.066406 277.902344 418.292969 277.902344 397.792969 C 277.902344 377.292969 261.128906 360.519531 240.628906 360.519531 C 220.128906 360.519531 203.355469 377.292969 203.355469 397.792969 C 203.355469 418.292969 220.128906 435.066406 240.628906 435.066406 Z M 240.628906 372.945312 C 254.296875 372.945312 265.476562 384.125 265.476562 397.792969 C 265.476562 411.460938 254.296875 422.640625 240.628906 422.640625 C 226.960938 422.640625 215.78125 411.460938 215.78125 397.792969 C 215.78125 384.125 226.960938 372.945312 240.628906 372.945312 Z M 240.628906 372.945312 " fill-opacity="1" fill-rule="nonzero"/><path fill="#e8af30" d="M 245.289062 317.035156 C 245.910156 317.035156 246.53125 317.035156 247.152344 317.035156 C 260.199219 296.222656 278.523438 278.828125 300.265625 266.714844 C 299.957031 262.988281 299.644531 258.949219 299.644531 254.910156 C 299.644531 254.289062 299.644531 253.980469 299.644531 253.359375 C 271.691406 267.644531 248.394531 290.011719 232.863281 317.34375 C 233.796875 317.34375 234.726562 317.035156 235.660156 317.035156 Z M 245.289062 317.035156 " fill-opacity="1" fill-rule="nonzero"/><g clip-path="url(#8170555bf6)"><path fill="#e8af30" d="M 503.40625 481.65625 L 488.496094 481.65625 C 478.558594 495.324219 466.132812 506.816406 451.84375 516.445312 C 443.148438 512.71875 434.140625 508.679688 427.308594 505.886719 C 423.269531 504.023438 420.164062 502.78125 417.988281 501.847656 L 412.707031 484.765625 C 425.441406 468.613281 433.207031 445.9375 433.207031 425.125 C 433.207031 387.851562 406.804688 357.414062 374.191406 357.414062 C 341.578125 357.414062 315.175781 387.851562 315.175781 425.125 C 315.175781 445.9375 322.941406 468.613281 335.675781 484.765625 L 330.394531 501.539062 C 328.53125 502.46875 325.117188 503.710938 321.078125 505.574219 C 313.3125 508.992188 302.75 513.652344 292.8125 517.6875 C 276.347656 507.128906 262.0625 493.773438 251.191406 477.621094 C 249.328125 477.929688 247.460938 478.242188 245.289062 478.242188 L 236.589844 478.242188 C 247.773438 495.945312 262.0625 511.167969 279.144531 523.28125 C 271.691406 526.386719 266.097656 528.871094 265.167969 529.183594 C 263.304688 529.804688 261.75 531.355469 261.441406 533.21875 L 246.839844 585.09375 C 246.21875 586.957031 246.839844 589.128906 247.773438 590.683594 C 248.703125 592.234375 250.878906 593.167969 252.742188 593.167969 L 495.019531 593.167969 C 496.882812 593.167969 498.746094 592.234375 499.992188 590.683594 C 501.234375 589.128906 501.542969 587.265625 500.921875 585.09375 L 486.324219 533.21875 C 485.703125 531.355469 484.460938 529.804688 482.597656 529.183594 C 481.664062 528.871094 474.210938 525.765625 464.890625 521.417969 C 480.109375 510.855469 493.15625 497.1875 503.40625 481.65625 Z M 327.601562 425.125 C 327.601562 394.6875 348.410156 369.835938 374.191406 369.835938 C 399.972656 369.835938 420.785156 394.6875 420.785156 425.125 C 420.785156 455.566406 399.972656 494.082031 374.191406 494.082031 C 348.410156 494.082031 327.601562 455.878906 327.601562 425.125 Z M 475.453125 540.054688 L 486.945312 581.054688 L 261.128906 581.054688 L 272.621094 540.054688 C 278.214844 537.566406 291.878906 531.976562 325.738281 517.066406 C 338.160156 511.789062 338.160156 511.476562 339.09375 511.167969 C 340.023438 510.234375 340.957031 509.300781 341.265625 508.058594 L 345.304688 495.015625 C 353.691406 502.160156 363.632812 506.507812 373.882812 506.507812 C 384.132812 506.507812 394.070312 502.160156 402.457031 495.015625 L 406.496094 508.058594 C 406.804688 509.300781 407.738281 510.546875 408.671875 511.167969 C 409.292969 511.789062 409.601562 511.789062 421.714844 517.066406 C 456.195312 531.667969 469.859375 537.566406 475.453125 540.054688 Z M 475.453125 540.054688 " fill-opacity="1" fill-rule="nonzero"/></g></svg>