<?xml version="1.0" encoding="utf-8"?>
<svg width="1000" zoomAndPan="magnify" viewBox="0 0 750 749.999995" height="1000" preserveAspectRatio="xMidYMid meet" version="1.0" xmlns="http://www.w3.org/2000/svg">
  <defs>
    <clipPath id="8b1a3e6ee8">
      <path d="M 93.75 93.75 L 655.828125 93.75 L 655.828125 655.828125 L 93.75 655.828125 Z M 93.75 93.75 " clip-rule="nonzero"/>
    </clipPath>
    <clipPath id="5cb2ef2756">
      <path d="M 232 227 L 378 227 L 378 271 L 232 271 Z M 232 227 " clip-rule="nonzero"/>
    </clipPath>
    <clipPath id="e07b6a8e10">
      <path d="M 306.761719 164.601562 L 390.980469 248.820312 L 306.761719 333.039062 L 222.546875 248.820312 Z M 306.761719 164.601562 " clip-rule="nonzero"/>
    </clipPath>
    <clipPath id="17a1649b19">
      <path d="M 306.761719 164.601562 L 390.980469 248.820312 L 306.761719 333.039062 L 222.546875 248.820312 Z M 306.761719 164.601562 " clip-rule="nonzero"/>
    </clipPath>
    <clipPath id="a5c3371f46">
      <path d="M 185 232.003906 L 566.078125 232.003906 L 566.078125 518.265625 L 185 518.265625 Z M 185 232.003906 " clip-rule="nonzero"/>
    </clipPath>
    <clipPath id="4f186a4107">
      <path d="M 294.648438 417.203125 L 455.351562 417.203125 L 455.351562 577.90625 L 294.648438 577.90625 Z M 294.648438 417.203125 " clip-rule="nonzero"/>
    </clipPath>
    <clipPath id="6fbb8338bd">
      <path d="M 375 417.203125 C 330.621094 417.203125 294.648438 453.175781 294.648438 497.554688 C 294.648438 541.929688 330.621094 577.90625 375 577.90625 C 419.378906 577.90625 455.351562 541.929688 455.351562 497.554688 C 455.351562 453.175781 419.378906 417.203125 375 417.203125 " clip-rule="nonzero"/>
    </clipPath>
    <clipPath id="9e6e0d3bbd">
      <path d="M 259.261719 424.769531 L 491.195312 424.769531 L 491.195312 656.707031 L 259.261719 656.707031 Z M 259.261719 424.769531 " clip-rule="nonzero"/>
    </clipPath>
  </defs>
  <ellipse style="stroke: rgb(0, 0, 0); stroke-opacity: 0; fill: rgb(255, 255, 255);" cx="369.535" cy="368.694" rx="240.051" ry="240.051"/>
  <g clip-path="url(#8b1a3e6ee8)">
    <path fill="#e8af30" d="M 374.789062 93.75 C 219.515625 93.75 93.75 219.515625 93.75 374.789062 C 93.75 530.0625 219.515625 655.828125 374.789062 655.828125 C 530.0625 655.828125 655.828125 530.0625 655.828125 374.789062 C 655.828125 219.515625 530.0625 93.75 374.789062 93.75 Z M 374.789062 599.617188 C 250.570312 599.617188 149.957031 499.007812 149.957031 374.789062 C 149.957031 250.570312 250.570312 149.957031 374.789062 149.957031 C 499.007812 149.957031 599.617188 250.570312 599.617188 374.789062 C 599.617188 499.007812 499.007812 599.617188 374.789062 599.617188 Z M 374.789062 599.617188 " fill-opacity="1" fill-rule="nonzero"/>
  </g>
  <g clip-path="url(#5cb2ef2756)">
    <g clip-path="url(#e07b6a8e10)">
      <g clip-path="url(#17a1649b19)">
        <path fill="#e8af30" d="M 259 243.34375 L 259.417969 253.566406 L 250.773438 259.035156 L 241.710938 254.289062 L 241.300781 244.074219 L 249.941406 238.597656 Z M 324.867188 246.375 C 326.214844 247.605469 326.316406 249.695312 325.082031 251.050781 C 324.457031 251.734375 323.574219 252.132812 322.644531 252.132812 L 280.746094 252.125 C 278.921875 252.109375 277.457031 250.617188 277.472656 248.789062 C 277.496094 246.988281 278.953125 245.53125 280.753906 245.507812 L 322.644531 245.507812 C 323.46875 245.507812 324.265625 245.816406 324.867188 246.375 Z M 376.054688 234.285156 C 368.023438 225.726562 354.578125 225.289062 346.019531 233.320312 C 344.445312 234.808594 343.097656 236.523438 342.03125 238.414062 C 341.097656 240.082031 339.328125 241.113281 337.417969 241.113281 L 269.765625 241.113281 C 268 241.113281 266.34375 240.238281 265.359375 238.765625 C 259.808594 230.480469 248.59375 228.257812 240.300781 233.8125 C 232.011719 239.363281 229.796875 250.585938 235.347656 258.871094 C 240.902344 267.152344 252.117188 269.375 260.40625 263.824219 C 262.363281 262.515625 264.046875 260.832031 265.359375 258.871094 C 266.34375 257.402344 268 256.523438 269.765625 256.523438 L 337.417969 256.523438 C 339.328125 256.523438 341.097656 257.554688 342.03125 259.226562 C 347.777344 269.464844 360.738281 273.089844 370.960938 267.34375 C 373.480469 265.929688 375.679688 264.023438 377.421875 261.734375 C 377.871094 261.15625 377.761719 260.324219 377.1875 259.882812 C 376.953125 259.703125 376.671875 259.601562 376.378906 259.601562 L 360.429688 259.609375 C 358.972656 259.609375 357.789062 258.425781 357.78125 256.960938 L 357.78125 240.679688 C 357.789062 239.214844 358.972656 238.03125 360.429688 238.03125 L 376.378906 238.039062 C 377.105469 238.03125 377.703125 237.433594 377.703125 236.714844 C 377.703125 236.417969 377.605469 236.132812 377.421875 235.902344 C 377.003906 235.335938 376.539062 234.800781 376.054688 234.285156 " fill-opacity="1" fill-rule="nonzero"/>
      </g>
    </g>
  </g>
  <g clip-path="url(#a5c3371f46)">
    <path fill="#e8af30" d="M 423.828125 290.28125 C 407.996094 290.28125 394.84375 277.109375 394.84375 261.03125 C 394.84375 245.175781 407.996094 232.003906 423.828125 232.003906 C 439.878906 232.003906 453.035156 245.175781 453.035156 261.03125 C 453.035156 277.109375 439.878906 290.28125 423.828125 290.28125 Z M 500.523438 408.851562 L 219.824219 408.851562 C 212.246094 408.851562 212.246094 397.238281 219.824219 397.238281 L 500.523438 397.238281 C 530.175781 397.238281 554.476562 372.902344 554.476562 343.203125 C 554.476562 313.28125 530.175781 288.941406 500.523438 288.941406 C 470.871094 288.941406 447.238281 312.164062 446.347656 341.640625 C 446.121094 349.230469 434.753906 348.785156 434.976562 341.191406 C 435.867188 305.464844 464.628906 277.332031 500.523438 277.332031 C 536.640625 277.332031 566.070312 306.804688 566.070312 343.203125 C 566.070312 379.375 536.640625 408.851562 500.523438 408.851562 Z M 364.746094 362.40625 L 219.824219 362.40625 C 212.246094 362.40625 212.246094 350.796875 219.824219 350.796875 L 364.746094 350.796875 C 379.015625 350.796875 390.382812 339.183594 390.382812 324.894531 C 390.382812 310.824219 379.015625 299.214844 364.746094 299.214844 C 350.699219 299.214844 339.328125 310.15625 338.882812 324.222656 C 338.660156 331.816406 327.289062 331.589844 327.511719 324 C 327.957031 303.679688 344.457031 287.601562 364.746094 287.601562 C 397.964844 287.601562 414.464844 328.019531 391.054688 351.464844 C 384.140625 358.386719 374.777344 362.40625 364.746094 362.40625 Z M 383.027344 518.265625 C 362.515625 518.265625 346.238281 502.410156 345.570312 482.089844 C 345.347656 474.5 356.941406 474.054688 357.164062 481.644531 C 357.609375 495.710938 368.757812 506.878906 383.027344 506.878906 C 397.074219 506.878906 408.667969 495.265625 408.667969 480.976562 C 408.667969 466.683594 397.074219 455.296875 383.027344 455.296875 L 219.824219 455.296875 C 212.246094 455.296875 212.246094 443.683594 219.824219 443.683594 L 383.027344 443.683594 C 403.539062 443.683594 420.261719 460.433594 420.261719 480.976562 C 420.261719 501.519531 403.539062 518.265625 383.027344 518.265625 Z M 288.941406 326.457031 L 239 326.457031 C 231.417969 326.457031 231.417969 314.84375 239 314.84375 L 288.941406 314.84375 C 296.519531 314.84375 296.519531 326.457031 288.941406 326.457031 Z M 441.664062 385.40625 L 269.988281 385.40625 C 262.410156 385.40625 262.410156 373.792969 269.988281 373.792969 L 441.664062 373.792969 C 449.242188 373.792969 449.242188 385.40625 441.664062 385.40625 Z M 362.960938 432.074219 L 191.289062 432.074219 C 183.707031 432.074219 183.707031 420.6875 191.289062 420.6875 L 362.960938 420.6875 C 370.542969 420.6875 370.542969 432.074219 362.960938 432.074219 Z M 329.519531 492.585938 L 279.355469 492.585938 C 271.773438 492.585938 271.773438 480.976562 279.355469 480.976562 L 329.519531 480.976562 C 337.097656 480.976562 337.097656 492.585938 329.519531 492.585938 Z M 489.597656 495.488281 C 470.871094 495.488281 455.488281 480.304688 455.488281 461.546875 C 455.488281 442.570312 470.871094 427.382812 489.597656 427.382812 C 508.550781 427.382812 523.710938 442.570312 523.710938 461.546875 C 523.710938 480.304688 508.550781 495.488281 489.597656 495.488281 Z M 489.597656 438.773438 C 477.335938 438.773438 467.082031 449.042969 467.082031 461.546875 C 467.082031 473.828125 477.335938 484.101562 489.597656 484.101562 C 502.085938 484.101562 512.339844 473.828125 512.339844 461.546875 C 512.339844 449.042969 502.085938 438.773438 489.597656 438.773438 Z M 423.828125 243.613281 C 414.242188 243.613281 406.4375 251.429688 406.4375 261.03125 C 406.4375 270.855469 414.242188 278.671875 423.828125 278.671875 C 433.636719 278.671875 441.441406 270.855469 441.441406 261.03125 C 441.441406 251.429688 433.636719 243.613281 423.828125 243.613281 Z M 423.828125 243.613281 " fill-opacity="1" fill-rule="evenodd"/>
  </g>
  <g clip-path="url(#4f186a4107)">
    <g clip-path="url(#6fbb8338bd)">
      <path fill="#ffffff" d="M 294.648438 417.203125 L 455.351562 417.203125 L 455.351562 577.90625 L 294.648438 577.90625 Z M 294.648438 417.203125 " fill-opacity="1" fill-rule="nonzero"/>
    </g>
  </g>
  <g clip-path="url(#9e6e0d3bbd)">
    <path fill="#0f2043" d="M 487.4375 656.6875 L 263.039062 656.6875 C 261.003906 656.6875 259.359375 655.042969 259.359375 653.011719 L 259.359375 632.046875 C 259.359375 597.171875 287.734375 568.796875 322.609375 568.796875 L 427.867188 568.796875 C 462.742188 568.796875 491.117188 597.171875 491.117188 632.046875 L 491.117188 653.011719 C 491.117188 655.042969 489.46875 656.6875 487.4375 656.6875 Z M 375.238281 558.90625 C 338.253906 558.90625 308.167969 528.820312 308.167969 491.839844 C 308.167969 454.859375 338.253906 424.769531 375.238281 424.769531 C 412.21875 424.769531 442.304688 454.859375 442.304688 491.839844 C 442.304688 528.820312 412.21875 558.90625 375.238281 558.90625 Z M 375.238281 558.90625 " fill-opacity="1" fill-rule="nonzero"/>
  </g>
</svg>