<svg xmlns="http://www.w3.org/2000/svg" xmlns:xlink="http://www.w3.org/1999/xlink" width="1000" zoomAndPan="magnify" viewBox="0 0 750 749.999995" height="1000" preserveAspectRatio="xMidYMid meet" version="1.0"><defs><clipPath id="21a55ceb51"><path d="M 93.75 93.75 L 656.269531 93.75 L 656.269531 656.269531 L 93.75 656.269531 Z M 93.75 93.75 " clip-rule="nonzero"/></clipPath><clipPath id="2c8e549a67"><path d="M 254.535156 254.535156 L 495.125 254.535156 L 495.125 495.125 L 254.535156 495.125 Z M 254.535156 254.535156 " clip-rule="nonzero"/></clipPath></defs><g clip-path="url(#21a55ceb51)"><path fill="#e8af30" d="M 375.011719 174.414062 C 485.722656 174.414062 575.609375 264.296875 575.609375 375.007812 C 575.609375 485.71875 485.722656 575.605469 375.011719 575.605469 C 264.296875 575.605469 174.414062 485.722656 174.414062 375.007812 C 174.414062 264.296875 264.296875 174.414062 375.011719 174.414062 Z M 391.738281 94.4375 C 380.597656 93.769531 369.425781 93.769531 358.285156 94.4375 L 338.875 138.847656 C 321.542969 141.5 304.558594 146.050781 288.226562 152.417969 L 249.207031 123.660156 C 239.226562 128.65625 229.554688 134.242188 220.238281 140.390625 L 225.632812 188.558594 C 211.949219 199.519531 199.515625 211.949219 188.554688 225.632812 L 140.390625 220.238281 C 134.242188 229.554688 128.65625 239.226562 123.660156 249.207031 L 152.417969 288.222656 C 146.050781 304.554688 141.5 321.539062 138.847656 338.871094 L 94.4375 358.28125 C 93.769531 369.425781 93.769531 380.59375 94.4375 391.734375 L 138.847656 411.148438 C 141.5 428.476562 146.050781 445.460938 152.417969 461.792969 L 123.660156 500.8125 C 128.65625 510.789062 134.242188 520.464844 140.390625 529.78125 L 188.554688 524.386719 C 199.519531 538.066406 211.949219 550.503906 225.632812 561.460938 L 220.238281 609.628906 C 229.554688 615.777344 239.230469 621.359375 249.210938 626.355469 L 288.226562 597.601562 C 304.558594 603.96875 321.542969 608.519531 338.875 611.171875 L 358.285156 655.582031 C 369.425781 656.246094 380.597656 656.246094 391.738281 655.582031 L 411.148438 611.171875 C 428.476562 608.519531 445.460938 603.96875 461.796875 597.601562 L 500.808594 626.355469 C 510.792969 621.363281 520.46875 615.777344 529.78125 609.628906 L 524.386719 561.460938 C 538.070312 550.5 550.503906 538.066406 561.464844 524.386719 L 609.628906 529.78125 C 615.777344 520.464844 621.363281 510.789062 626.359375 500.808594 L 597.601562 461.792969 C 603.96875 445.460938 608.519531 428.476562 611.171875 411.144531 L 655.585938 391.734375 C 656.25 380.59375 656.25 369.425781 655.585938 358.28125 L 611.171875 338.875 C 608.519531 321.542969 603.96875 304.558594 597.601562 288.226562 L 626.359375 249.210938 C 621.363281 239.230469 615.777344 229.558594 609.628906 220.238281 L 561.464844 225.636719 C 550.503906 211.953125 538.070312 199.519531 524.386719 188.558594 L 529.78125 140.390625 C 520.464844 134.246094 510.789062 128.660156 500.808594 123.664062 L 461.796875 152.421875 C 445.464844 146.054688 428.480469 141.503906 411.148438 138.851562 Z M 391.738281 94.4375 " fill-opacity="1" fill-rule="evenodd"/></g><g clip-path="url(#2c8e549a67)"><path fill="#0f2043" d="M 491.226562 495.109375 L 258.453125 495.109375 C 256.34375 495.109375 254.636719 493.398438 254.636719 491.292969 L 254.636719 469.546875 C 254.636719 433.371094 284.070312 403.9375 320.246094 403.9375 L 429.433594 403.9375 C 465.609375 403.9375 495.042969 433.371094 495.042969 469.546875 L 495.042969 491.292969 C 495.042969 493.398438 493.335938 495.109375 491.226562 495.109375 Z M 374.839844 393.679688 C 336.480469 393.679688 305.269531 362.46875 305.269531 324.105469 C 305.269531 285.746094 336.480469 254.535156 374.839844 254.535156 C 413.203125 254.535156 444.410156 285.746094 444.410156 324.105469 C 444.410156 362.46875 413.203125 393.679688 374.839844 393.679688 Z M 374.839844 393.679688 " fill-opacity="1" fill-rule="nonzero"/></g></svg>