<?xml version="1.0" encoding="utf-8"?>
<svg width="1000" zoomAndPan="magnify" viewBox="0 0 750 749.999995" height="1000" preserveAspectRatio="xMidYMid meet" version="1.0" xmlns="http://www.w3.org/2000/svg">
  <defs>
    <clipPath id="b6425d283c">
      <path d="M 93.75 93.75 L 655.828125 93.75 L 655.828125 655.828125 L 93.75 655.828125 Z M 93.75 93.75 " clip-rule="nonzero"/>
    </clipPath>
    <clipPath id="6d5d1e63a9">
      <path d="M 225.554688 210.941406 L 519.128906 210.941406 L 519.128906 504.515625 L 225.554688 504.515625 Z M 225.554688 210.941406 " clip-rule="nonzero"/>
    </clipPath>
    <clipPath id="3d70937b8d">
      <path d="M 372.292969 294.050781 L 556 294.050781 L 556 592.851562 L 372.292969 592.851562 Z M 372.292969 294.050781 " clip-rule="nonzero"/>
    </clipPath>
  </defs>
  <ellipse style="stroke: rgb(0, 0, 0); stroke-opacity: 0; fill: rgb(255, 255, 255);" cx="370.796" cy="381.727" rx="240.051" ry="240.051"/>
  <g clip-path="url(#b6425d283c)">
    <path fill="#e8af30" d="M 374.789062 93.75 C 219.515625 93.75 93.75 219.515625 93.75 374.789062 C 93.75 530.0625 219.515625 655.828125 374.789062 655.828125 C 530.0625 655.828125 655.828125 530.0625 655.828125 374.789062 C 655.828125 219.515625 530.0625 93.75 374.789062 93.75 Z M 374.789062 599.617188 C 250.570312 599.617188 149.957031 499.007812 149.957031 374.789062 C 149.957031 250.570312 250.570312 149.957031 374.789062 149.957031 C 499.007812 149.957031 599.617188 250.570312 599.617188 374.789062 C 599.617188 499.007812 499.007812 599.617188 374.789062 599.617188 Z M 374.789062 599.617188 " fill-opacity="1" fill-rule="nonzero"/>
  </g>
  <g clip-path="url(#6d5d1e63a9)">
    <path fill="#0f2043" d="M 514.375 504.492188 L 230.335938 504.492188 C 227.765625 504.492188 225.679688 502.410156 225.679688 499.835938 L 225.679688 473.304688 C 225.679688 429.160156 261.59375 393.242188 305.738281 393.242188 L 438.96875 393.242188 C 483.117188 393.242188 519.03125 429.160156 519.03125 473.304688 L 519.03125 499.835938 C 519.03125 502.410156 516.945312 504.492188 514.375 504.492188 Z M 372.355469 380.726562 C 325.542969 380.726562 287.460938 342.644531 287.460938 295.832031 C 287.460938 249.023438 325.542969 210.941406 372.355469 210.941406 C 419.164062 210.941406 457.246094 249.023438 457.246094 295.832031 C 457.246094 342.644531 419.164062 380.726562 372.355469 380.726562 Z M 372.355469 380.726562 " fill-opacity="1" fill-rule="nonzero"/>
  </g>
  <g clip-path="url(#3d70937b8d)">
    <path fill="#e8af30" d="M 487.042969 396.152344 L 553.75 396.152344 L 372.988281 592.851562 L 450.417969 440.878906 L 399.136719 440.878906 L 475.976562 294.050781 L 555.613281 294.050781 L 487.042969 396.152344 " fill-opacity="1" fill-rule="nonzero"/>
  </g>
</svg>