<svg xmlns="http://www.w3.org/2000/svg" xmlns:xlink="http://www.w3.org/1999/xlink" width="1000" zoomAndPan="magnify" viewBox="0 0 750 749.999995" height="1000" preserveAspectRatio="xMidYMid meet" version="1.0"><defs><clipPath id="ceef053d51"><path d="M 93.75 93.75 L 656.640625 93.75 L 656.640625 656.640625 L 93.75 656.640625 Z M 93.75 93.75 " clip-rule="nonzero"/></clipPath><clipPath id="a5b970be0d"><path d="M 244 264 L 505 264 L 505 532.171875 L 244 532.171875 Z M 244 264 " clip-rule="nonzero"/></clipPath><clipPath id="b8e4cc54fd"><path d="M 213 189.859375 L 537 189.859375 L 537 376 L 213 376 Z M 213 189.859375 " clip-rule="nonzero"/></clipPath><clipPath id="dfd96d0248"><path d="M 265.105469 395.09375 L 472.570312 395.09375 L 472.570312 531.9375 L 265.105469 531.9375 Z M 265.105469 395.09375 " clip-rule="nonzero"/></clipPath><clipPath id="4ddc17c4b1"><path d="M 297.753906 348.808594 L 452.433594 348.808594 L 452.433594 503.488281 L 297.753906 503.488281 Z M 297.753906 348.808594 " clip-rule="nonzero"/></clipPath></defs><g clip-path="url(#ceef053d51)"><path fill="#e8af30" d="M 375.195312 93.75 C 219.695312 93.75 93.75 219.695312 93.75 375.195312 C 93.75 530.695312 219.695312 656.640625 375.195312 656.640625 C 530.695312 656.640625 656.640625 530.695312 656.640625 375.195312 C 656.640625 219.695312 530.695312 93.75 375.195312 93.75 Z M 375.195312 600.351562 C 250.796875 600.351562 150.039062 499.59375 150.039062 375.195312 C 150.039062 250.796875 250.796875 150.039062 375.195312 150.039062 C 499.59375 150.039062 600.351562 250.796875 600.351562 375.195312 C 600.351562 499.59375 499.59375 600.351562 375.195312 600.351562 Z M 375.195312 600.351562 " fill-opacity="1" fill-rule="nonzero"/></g><g clip-path="url(#a5b970be0d)"><path fill="#0f2043" d="M 244.628906 393.90625 L 244.628906 526.128906 C 244.628906 529.449219 247.324219 532.148438 250.652344 532.148438 L 392.542969 532.148438 L 392.542969 412.421875 L 459.199219 412.421875 L 459.199219 532.148438 L 498.847656 532.148438 C 502.183594 532.148438 504.871094 529.449219 504.871094 526.128906 L 504.871094 393.90625 L 374.824219 264.40625 Z M 350.445312 468.203125 L 290.300781 468.203125 L 290.300781 412.429688 L 350.445312 412.429688 Z M 350.445312 468.203125 " fill-opacity="1" fill-rule="nonzero"/></g><g clip-path="url(#b8e4cc54fd)"><path fill="#0f2043" d="M 531.226562 346.359375 L 374.757812 189.878906 L 300.941406 263.695312 L 300.941406 231.210938 C 300.941406 223.625 294.78125 217.464844 287.195312 217.464844 C 279.605469 217.464844 273.449219 223.625 273.449219 231.210938 L 273.449219 291.191406 L 218.277344 346.359375 C 211.5625 353.074219 211.5625 363.957031 218.277344 370.664062 C 221.632812 374.019531 226.03125 375.699219 230.429688 375.699219 C 234.828125 375.699219 239.21875 374.019531 242.582031 370.671875 L 374.761719 238.492188 L 506.933594 370.664062 C 513.648438 377.382812 524.519531 377.382812 531.226562 370.664062 C 537.9375 363.949219 537.9375 353.070312 531.226562 346.359375 Z M 531.226562 346.359375 " fill-opacity="1" fill-rule="nonzero"/></g><g clip-path="url(#dfd96d0248)"><path fill="#0f2043" d="M 265.105469 395.09375 L 472.570312 395.09375 L 472.570312 532.054688 L 265.105469 532.054688 Z M 265.105469 395.09375 " fill-opacity="1" fill-rule="nonzero"/></g><g clip-path="url(#4ddc17c4b1)"><path fill="#e8af30" d="M 449.929688 503.476562 L 300.273438 503.476562 C 298.917969 503.476562 297.820312 502.378906 297.820312 501.023438 L 297.820312 487.042969 C 297.820312 463.785156 316.742188 444.863281 340 444.863281 L 410.199219 444.863281 C 433.457031 444.863281 452.382812 463.785156 452.382812 487.042969 L 452.382812 501.023438 C 452.382812 502.378906 451.285156 503.476562 449.929688 503.476562 Z M 375.101562 438.265625 C 350.4375 438.265625 330.371094 418.199219 330.371094 393.539062 C 330.371094 368.875 350.4375 348.808594 375.101562 348.808594 C 399.765625 348.808594 419.828125 368.875 419.828125 393.539062 C 419.828125 418.199219 399.765625 438.265625 375.101562 438.265625 Z M 375.101562 438.265625 " fill-opacity="1" fill-rule="nonzero"/></g></svg>