<?xml version="1.0" encoding="utf-8"?>
<svg width="1000" zoomAndPan="magnify" viewBox="0 0 750 749.999995" height="1000" preserveAspectRatio="xMidYMid meet" version="1.0" xmlns="http://www.w3.org/2000/svg">
  <defs>
    <clipPath id="b6425d283c">
      <path d="M 93.75 93.75 L 655.828125 93.75 L 655.828125 655.828125 L 93.75 655.828125 Z M 93.75 93.75 " clip-rule="nonzero"/>
    </clipPath>
    <clipPath id="3d70937b8d">
      <path d="M 372.292969 294.050781 L 556 294.050781 L 556 592.851562 L 372.292969 592.851562 Z M 372.292969 294.050781 " clip-rule="nonzero"/>
    </clipPath>
  </defs>
  <ellipse style="stroke: rgb(0, 0, 0); stroke-opacity: 0; fill: rgb(255, 255, 255);" cx="370.796" cy="381.727" rx="240.051" ry="240.051"/>
  <g clip-path="url(#b6425d283c)">
    <path fill="#e8af30" d="M 374.789062 93.75 C 219.515625 93.75 93.75 219.515625 93.75 374.789062 C 93.75 530.0625 219.515625 655.828125 374.789062 655.828125 C 530.0625 655.828125 655.828125 530.0625 655.828125 374.789062 C 655.828125 219.515625 530.0625 93.75 374.789062 93.75 Z M 374.789062 599.617188 C 250.570312 599.617188 149.957031 499.007812 149.957031 374.789062 C 149.957031 250.570312 250.570312 149.957031 374.789062 149.957031 C 499.007812 149.957031 599.617188 250.570312 599.617188 374.789062 C 599.617188 499.007812 499.007812 599.617188 374.789062 599.617188 Z M 374.789062 599.617188 " fill-opacity="1" fill-rule="nonzero"/>
  </g>
  <g clip-path="url(#3d70937b8d)" transform="matrix(1, 0, 0, 1, -88.284752, -61.378925)">
    <path fill="#e8af30" d="M 487.042969 396.152344 L 553.75 396.152344 L 372.988281 592.851562 L 450.417969 440.878906 L 399.136719 440.878906 L 475.976562 294.050781 L 555.613281 294.050781 L 487.042969 396.152344 " fill-opacity="1" fill-rule="nonzero"/>
  </g>
</svg>